<mxfile host="65bd71144e">
    <diagram id="qwdjv6EuC6kWKs5qn-RF" name="Page-1">
        <mxGraphModel dx="919" dy="671" grid="1" gridSize="10" guides="1" tooltips="1" connect="1" arrows="1" fold="1" page="1" pageScale="1" pageWidth="850" pageHeight="1100" math="0" shadow="0">
            <root>
                <mxCell id="0"/>
                <mxCell id="1" parent="0"/>
                <mxCell id="27" value="Push to AWS" style="edgeStyle=orthogonalEdgeStyle;html=1;labelBackgroundColor=default;fontSize=9;fontColor=#000000;fontFamily=JetBrains mono;" parent="1" source="3" target="28" edge="1">
                    <mxGeometry relative="1" as="geometry">
                        <mxPoint x="1079" y="260" as="targetPoint"/>
                    </mxGeometry>
                </mxCell>
                <mxCell id="3" value="AWS Cloudwatch SDK" style="whiteSpace=wrap;html=1;fillColor=#e1d5e7;strokeColor=#9673a6;fontFamily=JetBrains mono;fontSize=9;fontColor=#000000;" parent="1" vertex="1">
                    <mxGeometry x="864" y="151" width="130" height="60" as="geometry"/>
                </mxCell>
                <mxCell id="4" value="log4js" style="whiteSpace=wrap;html=1;fillColor=#fff2cc;strokeColor=#d6b656;fontFamily=JetBrains mono;fontSize=9;fontColor=#000000;" parent="1" vertex="1">
                    <mxGeometry x="287" y="40" width="130" height="60" as="geometry"/>
                </mxCell>
                <mxCell id="9" value="&lt;div style=&quot;line-height: 18px; font-size: 9px;&quot;&gt;&lt;div style=&quot;line-height: 18px; font-size: 9px;&quot;&gt;&lt;span style=&quot;font-size: 9px;&quot;&gt;cloudwatch&lt;/span&gt;&lt;span style=&quot;font-size: 9px;&quot;&gt;.&lt;/span&gt;putLogEvents()&lt;/div&gt;&lt;/div&gt;" style="edgeStyle=orthogonalEdgeStyle;html=1;fontFamily=JetBrains mono;fontSize=9;fontColor=#000000;" parent="1" source="29" target="3" edge="1">
                    <mxGeometry x="-0.0973" relative="1" as="geometry">
                        <mxPoint x="579" y="30" as="sourcePoint"/>
                        <Array as="points">
                            <mxPoint x="800" y="180"/>
                            <mxPoint x="800" y="180"/>
                        </Array>
                        <mxPoint as="offset"/>
                    </mxGeometry>
                </mxCell>
                <mxCell id="18" value="&lt;span style=&quot;background-color: rgb(251, 251, 251); font-size: 9px;&quot;&gt;log4js.configure()&lt;/span&gt;" style="edgeStyle=orthogonalEdgeStyle;html=1;labelBackgroundColor=default;fontFamily=JetBrains mono;fontSize=9;fontColor=#000000;" parent="1" source="4" target="5" edge="1">
                    <mxGeometry relative="1" as="geometry">
                        <Array as="points">
                            <mxPoint x="496" y="80"/>
                            <mxPoint x="496" y="80"/>
                        </Array>
                    </mxGeometry>
                </mxCell>
                <mxCell id="20" value="capture log-event" style="edgeStyle=orthogonalEdgeStyle;html=1;labelBackgroundColor=default;fontSize=9;fontColor=#000000;fontFamily=JetBrains mono;" parent="1" source="5" target="4" edge="1">
                    <mxGeometry relative="1" as="geometry">
                        <Array as="points">
                            <mxPoint x="486" y="60"/>
                            <mxPoint x="486" y="60"/>
                        </Array>
                        <mxPoint as="offset"/>
                    </mxGeometry>
                </mxCell>
                <mxCell id="5" value="log4js-appender-cloudwatch" style="whiteSpace=wrap;html=1;fillColor=#fff2cc;strokeColor=#d6b656;fontFamily=JetBrains mono;fontSize=9;fontColor=#000000;" parent="1" vertex="1">
                    <mxGeometry x="573" y="40" width="130" height="60" as="geometry"/>
                </mxCell>
                <mxCell id="13" value="log-event" style="edgeStyle=orthogonalEdgeStyle;html=1;fontFamily=JetBrains mono;fontSize=9;fontColor=#000000;" parent="1" source="10" target="4" edge="1">
                    <mxGeometry relative="1" as="geometry"/>
                </mxCell>
                <mxCell id="10" value="app" style="whiteSpace=wrap;html=1;fillColor=#dae8fc;strokeColor=#6c8ebf;fontFamily=JetBrains mono;fontSize=9;fontColor=#000000;" parent="1" vertex="1">
                    <mxGeometry x="40" y="40" width="130" height="60" as="geometry"/>
                </mxCell>
                <mxCell id="28" value="" style="points=[[0,0,0],[0.25,0,0],[0.5,0,0],[0.75,0,0],[1,0,0],[0,1,0],[0.25,1,0],[0.5,1,0],[0.75,1,0],[1,1,0],[0,0.25,0],[0,0.5,0],[0,0.75,0],[1,0.25,0],[1,0.5,0],[1,0.75,0]];points=[[0,0,0],[0.25,0,0],[0.5,0,0],[0.75,0,0],[1,0,0],[0,1,0],[0.25,1,0],[0.5,1,0],[0.75,1,0],[1,1,0],[0,0.25,0],[0,0.5,0],[0,0.75,0],[1,0.25,0],[1,0.5,0],[1,0.75,0]];outlineConnect=0;fontColor=#232F3E;gradientColor=#F34482;gradientDirection=north;fillColor=#BC1356;strokeColor=#ffffff;dashed=0;verticalLabelPosition=bottom;verticalAlign=top;align=center;html=1;fontSize=9;fontStyle=0;aspect=fixed;shape=mxgraph.aws4.resourceIcon;resIcon=mxgraph.aws4.cloudwatch_2;fontFamily=JetBrains mono;" vertex="1" parent="1">
                    <mxGeometry x="899" y="40" width="60" height="60" as="geometry"/>
                </mxCell>
                <mxCell id="31" value="&lt;span style=&quot;color: rgb(13, 13, 13); text-align: start;&quot;&gt;&lt;font style=&quot;font-size: 9px;&quot;&gt;Aggregate and push logs within limits.&lt;/font&gt;&lt;/span&gt;" style="edgeStyle=orthogonalEdgeStyle;html=1;fontSize=9;fontColor=#000000;fontFamily=JetBrains mono;" edge="1" parent="1" source="29" target="5">
                    <mxGeometry x="-0.1765" relative="1" as="geometry">
                        <mxPoint as="offset"/>
                    </mxGeometry>
                </mxCell>
                <mxCell id="29" value="LogBuffer" style="whiteSpace=wrap;html=1;fillColor=#fff2cc;strokeColor=#d6b656;fontFamily=JetBrains mono;fontSize=9;fontColor=#000000;" vertex="1" parent="1">
                    <mxGeometry x="573" y="151" width="130" height="60" as="geometry"/>
                </mxCell>
            </root>
        </mxGraphModel>
    </diagram>
</mxfile>
